<svg width="513" height="102" viewBox="0 0 513 102" fill="none" xmlns="http://www.w3.org/2000/svg">
<g clip-path="url(#clip0)">
<path d="M207.799 30.6832V76H199.225V30.6832H207.799ZM214.065 58.9143C214.065 55.485 214.739 52.4434 216.086 49.7897C217.474 47.136 219.331 45.0947 221.659 43.6658C224.026 42.2369 226.66 41.5225 229.558 41.5225C232.09 41.5225 234.294 42.0328 236.172 43.0534C238.091 44.0741 239.622 45.3601 240.765 46.9115V42.0736H249.4V76H240.765V71.0396C239.663 72.6319 238.132 73.9587 236.172 75.0202C234.253 76.0408 232.028 76.5512 229.497 76.5512C226.639 76.5512 224.026 75.8163 221.659 74.3465C219.331 72.8768 217.474 70.8151 216.086 68.1614C214.739 65.4669 214.065 62.3845 214.065 58.9143ZM240.765 59.0368C240.765 56.9547 240.357 55.1788 239.54 53.709C238.724 52.1985 237.622 51.0553 236.233 50.2796C234.845 49.4631 233.355 49.0549 231.763 49.0549C230.171 49.0549 228.701 49.4427 227.354 50.2184C226.007 50.9941 224.904 52.1372 224.047 53.6478C223.23 55.1175 222.822 56.873 222.822 58.9143C222.822 60.9556 223.23 62.752 224.047 64.3034C224.904 65.8139 226.007 66.9775 227.354 67.794C228.742 68.6105 230.212 69.0188 231.763 69.0188C233.355 69.0188 234.845 68.6309 236.233 67.8552C237.622 67.0387 238.724 65.8956 239.54 64.4258C240.357 62.9153 240.765 61.1189 240.765 59.0368ZM270.756 76.5512C267.98 76.5512 265.489 76.0612 263.285 75.0814C261.08 74.0608 259.325 72.6931 258.018 70.9784C256.753 69.2637 256.059 67.3653 255.936 65.2832H264.571C264.734 66.5896 265.367 67.6715 266.469 68.5288C267.612 69.3862 269.021 69.8149 270.695 69.8149C272.328 69.8149 273.593 69.4883 274.492 68.835C275.431 68.1818 275.9 67.3449 275.9 66.3242C275.9 65.2219 275.328 64.4054 274.185 63.8747C273.083 63.3031 271.307 62.6907 268.858 62.0375C266.326 61.4251 264.244 60.7923 262.611 60.1391C261.019 59.4859 259.631 58.4857 258.447 57.1384C257.304 55.7911 256.732 53.9744 256.732 51.6881C256.732 49.8101 257.263 48.0954 258.324 46.5441C259.427 44.9927 260.978 43.7679 262.979 42.8697C265.02 41.9716 267.408 41.5225 270.144 41.5225C274.185 41.5225 277.411 42.5431 279.819 44.5844C282.228 46.5849 283.555 49.2998 283.8 52.7292H275.594C275.471 51.3819 274.9 50.3205 273.879 49.5448C272.899 48.7283 271.572 48.32 269.899 48.32C268.347 48.32 267.143 48.6058 266.285 49.1773C265.469 49.7489 265.061 50.545 265.061 51.5657C265.061 52.7088 265.632 53.5865 266.775 54.1989C267.919 54.7705 269.694 55.3625 272.103 55.9749C274.553 56.5873 276.574 57.2201 278.166 57.8733C279.758 58.5265 281.126 59.5471 282.269 60.9352C283.453 62.2825 284.065 64.0788 284.106 66.3242C284.106 68.2839 283.555 70.0394 282.453 71.5908C281.391 73.1422 279.84 74.367 277.798 75.2651C275.798 76.1225 273.45 76.5512 270.756 76.5512ZM301.126 49.1161V65.5281C301.126 66.6713 301.391 67.5082 301.922 68.0389C302.493 68.5288 303.432 68.7738 304.739 68.7738H308.719V76H303.33C296.104 76 292.491 72.489 292.491 65.4669V49.1161H288.449V42.0736H292.491V33.6839H301.126V42.0736H308.719V49.1161H301.126ZM323.459 30.6832V76H314.886V30.6832H323.459ZM329.725 58.9143C329.725 55.485 330.399 52.4434 331.746 49.7897C333.134 47.136 334.992 45.0947 337.319 43.6658C339.687 42.2369 342.32 41.5225 345.219 41.5225C347.75 41.5225 349.954 42.0328 351.832 43.0534C353.751 44.0741 355.282 45.3601 356.425 46.9115V42.0736H365.06V76H356.425V71.0396C355.323 72.6319 353.792 73.9587 351.832 75.0202C349.914 76.0408 347.689 76.5512 345.157 76.5512C342.3 76.5512 339.687 75.8163 337.319 74.3465C334.992 72.8768 333.134 70.8151 331.746 68.1614C330.399 65.4669 329.725 62.3845 329.725 58.9143ZM356.425 59.0368C356.425 56.9547 356.017 55.1788 355.201 53.709C354.384 52.1985 353.282 51.0553 351.894 50.2796C350.506 49.4631 349.015 49.0549 347.423 49.0549C345.831 49.0549 344.361 49.4427 343.014 50.2184C341.667 50.9941 340.565 52.1372 339.707 53.6478C338.891 55.1175 338.482 56.873 338.482 58.9143C338.482 60.9556 338.891 62.752 339.707 64.3034C340.565 65.8139 341.667 66.9775 343.014 67.794C344.402 68.6105 345.872 69.0188 347.423 69.0188C349.015 69.0188 350.506 68.6309 351.894 67.8552C353.282 67.0387 354.384 65.8956 355.201 64.4258C356.017 62.9153 356.425 61.1189 356.425 59.0368ZM405.89 42.0736L384.885 92.0446H375.761L383.109 75.1427L369.514 42.0736H379.129L387.886 65.7731L396.766 42.0736H405.89ZM442.05 58.3019C442.05 59.5267 441.968 60.629 441.805 61.6088H417.003C417.207 64.0584 418.065 65.9772 419.575 67.3653C421.086 68.7534 422.943 69.4474 425.148 69.4474C428.332 69.4474 430.598 68.0798 431.945 65.3444H441.193C440.213 68.6105 438.335 71.305 435.559 73.428C432.782 75.5101 429.373 76.5512 425.332 76.5512C422.066 76.5512 419.126 75.8367 416.513 74.4078C413.941 72.9381 411.92 70.8763 410.451 68.2227C409.022 65.569 408.307 62.507 408.307 59.0368C408.307 55.5258 409.022 52.4434 410.451 49.7897C411.88 47.136 413.88 45.0947 416.452 43.6658C419.024 42.2369 421.984 41.5225 425.332 41.5225C428.557 41.5225 431.435 42.2165 433.966 43.6046C436.538 44.9927 438.518 46.9727 439.907 49.5448C441.335 52.076 442.05 54.995 442.05 58.3019ZM433.17 55.8524C433.129 53.6478 432.333 51.8923 430.782 50.5858C429.231 49.2386 427.332 48.5649 425.087 48.5649C422.964 48.5649 421.167 49.2182 419.698 50.5246C418.269 51.7902 417.391 53.5661 417.064 55.8524H433.17ZM456.881 47.3402C457.984 45.5438 459.412 44.1353 461.168 43.1147C462.964 42.094 465.006 41.5837 467.292 41.5837V50.5858H465.026C462.331 50.5858 460.29 51.2186 458.902 52.4842C457.555 53.7498 456.881 55.9544 456.881 59.098V76H448.308V42.0736H456.881V47.3402Z" fill="white"/>
<path d="M3.084 44.499L77.0966 72.3106L151.109 44.499" stroke="white" stroke-width="3.74932" stroke-linecap="round" stroke-linejoin="round"/>
<path d="M3.084 58.4062L77.0966 86.2178L151.109 58.4062" stroke="white" stroke-width="3.74932" stroke-linecap="round" stroke-linejoin="round"/>
<path d="M3.084 72.3105L77.0966 100.122L151.109 72.3105" stroke="white" stroke-width="3" stroke-linecap="round" stroke-linejoin="round"/>
<path d="M77.096 61.1862C76.6883 61.1873 76.2845 61.1145 75.9086 60.9722L1.89692 33.1606C1.33507 32.9493 0.855124 32.5928 0.517527 32.136C0.179931 31.6792 -0.000213623 31.1425 -0.000213623 30.5935C-0.000213623 30.0445 0.179931 29.5078 0.517527 29.051C0.855124 28.5942 1.33507 28.2377 1.89692 28.0264L75.9095 0.214831C76.2856 0.0730236 76.6891 0 77.0967 0C77.5044 0 77.9079 0.0730236 78.284 0.214831L152.297 28.0264C152.858 28.2377 153.338 28.5942 153.676 29.051C154.014 29.5078 154.194 30.0445 154.194 30.5935C154.194 31.1425 154.014 31.6792 153.676 32.136C153.338 32.5928 152.858 32.9493 152.297 33.1606L78.284 60.9722C77.9079 61.1146 77.5039 61.1874 77.096 61.1862V61.1862Z" fill="white"/>
</g>
<defs>
<clipPath id="clip0">
<rect width="513" height="102" fill="white"/>
</clipPath>
</defs>
</svg>
