<svg xmlns="http://www.w3.org/2000/svg" width="1109" height="244.5" viewBox="0 0 1109 244.5"><g transform="translate(-48 -42)"><text transform="translate(514 211)" fill="#fff" font-size="147" font-family="Poppins" font-weight="500"><tspan x="0" y="0">lastlayer</tspan></text><g transform="translate(48 42)"><path d="M1,23,161,89.666,321,23" transform="translate(5.667 83.668)" fill="rgba(223,239,8,0)" stroke="#cecece" stroke-linecap="round" stroke-linejoin="round" stroke-width="9"/><path d="M1,28,161,94.666,321,28" transform="translate(5.667 112.001)" fill="none" stroke="#a7a7a7" stroke-linecap="round" stroke-linejoin="round" stroke-width="9"/><path d="M1,33,161,99.666,321,33" transform="translate(5.667 140.334)" fill="none" stroke="#7e7e7e" stroke-linecap="round" stroke-linejoin="round" stroke-width="9"/><path d="M166.665,153.667a6.583,6.583,0,0,1-2.567-.513L4.1,86.488a6.667,6.667,0,0,1,0-12.307l160-66.666a6.653,6.653,0,0,1,5.133,0l160,66.666a6.667,6.667,0,0,1,0,12.307l-160,66.666A6.583,6.583,0,0,1,166.665,153.667Z" transform="translate(0 -7)" fill="#fff"/></g></g></svg>